<?xml version="1.0" standalone="no"?>
<!DOCTYPE svg PUBLIC "-//W3C//DTD SVG 20010904//EN"
 "http://www.w3.org/TR/2001/REC-SVG-20010904/DTD/svg10.dtd">
<svg version="1.0" xmlns="http://www.w3.org/2000/svg"
 width="1401.000000pt" height="1401.000000pt" viewBox="0 0 1401.000000 1401.000000"
 preserveAspectRatio="xMidYMid meet">
<metadata>
Created by potrace 1.14, written by Peter Selinger 2001-2017
</metadata>
<g transform="translate(0.000000,1401.000000) scale(0.100000,-0.100000)"
fill="#000000" stroke="none">
<path d="M6875 13996 c-33 -8 -80 -22 -105 -32 -25 -9 -511 -286 -1080 -614
-3490 -2013 -4549 -2625 -4580 -2648 -105 -79 -192 -202 -232 -332 l-23 -75 0
-3290 0 -3290 23 -75 c40 -130 127 -253 232 -332 19 -14 825 -481 1790 -1038
965 -557 2222 -1282 2792 -1611 732 -422 1061 -607 1115 -626 68 -24 93 -27
198 -27 105 0 130 3 199 27 55 19 296 153 800 444 396 229 1653 954 2791 1611
1139 656 2094 1212 2123 1234 96 74 173 189 214 318 l23 75 0 3290 0 3290 -23
75 c-41 129 -118 244 -214 318 -29 22 -984 578 -2123 1235 -1138 656 -2395
1381 -2791 1610 -526 304 -743 423 -800 443 -97 32 -238 41 -329 20z m1905
-2396 c965 -557 1865 -1077 2000 -1155 135 -78 435 -251 668 -385 l422 -243 0
-2812 0 -2812 -422 -243 c-233 -134 -533 -307 -668 -385 -979 -567 -3756
-2168 -3766 -2172 -11 -4 -730 409 -4066 2335 l-808 466 0 2811 0 2811 818
472 c449 259 1542 890 2427 1402 886 511 1617 928 1625 926 8 -1 805 -459
1770 -1016z"/>
<path d="M6865 11010 c-22 -4 -67 -18 -100 -30 -82 -31 -3033 -1734 -3100
-1790 -105 -87 -189 -222 -220 -353 -23 -97 -19 -249 8 -343 47 -165 162 -312
312 -400 70 -40 611 -353 3345 -1931 783 -452 1426 -825 1427 -830 1 -4 -344
-208 -768 -452 -673 -387 -773 -442 -792 -433 -12 6 -512 294 -1112 640
l-1090 629 -5 404 -5 404 -28 80 c-73 207 -223 358 -424 427 -318 110 -677
-41 -823 -347 -59 -124 -60 -130 -60 -821 0 -580 1 -636 18 -700 37 -137 112
-257 217 -344 75 -63 3020 -1760 3115 -1796 69 -26 86 -28 215 -28 125 0 148
3 213 26 61 22 1168 655 2851 1630 237 137 285 172 352 253 99 121 151 266
152 425 0 116 -19 196 -75 310 -33 67 -58 101 -122 165 -81 79 -91 86 -1221
737 -2478 1427 -3690 2129 -3692 2136 -3 10 1525 887 1545 886 9 0 386 -213
837 -474 451 -260 949 -548 1107 -639 l288 -166 1 -180 c0 -99 4 -295 8 -435
7 -241 9 -259 35 -335 92 -270 325 -447 606 -462 270 -14 523 137 640 382 54
112 60 161 59 475 -1 566 -16 1050 -34 1115 -38 137 -127 276 -228 353 -58 45
-85 61 -1844 1076 -809 467 -1215 696 -1265 713 -57 20 -97 26 -188 29 -63 2
-133 -1 -155 -6z"/>
</g>
</svg>
